<svg xmlns:x="http://ns.adobe.com/Extensibility/1.0/" xmlns:i="http://ns.adobe.com/AdobeIllustrator/10.0/" xmlns:graph="http://ns.adobe.com/Graphs/1.0/" xmlns="http://www.w3.org/2000/svg" xmlns:xlink="http://www.w3.org/1999/xlink" version="1.1" x="0px" y="0px" viewBox="0 0 64 80" enable-background="new 0 0 64 64" xml:space="preserve"><metadata><sfw xmlns="http://ns.adobe.com/SaveForWeb/1.0/"><slices/><sliceSourceBounds height="51.982" width="38" x="13" y="5" bottomLeftOrigin="true"/></sfw></metadata><g><g><path d="M51,58V47c0-0.21-0.066-0.415-0.189-0.586l-5.94-8.225C44.957,37.049,45,36.002,45,35    C45,22.082,33.266,7.952,32.766,7.357c-0.38-0.452-1.152-0.452-1.532,0C30.734,7.952,19,22.082,19,35    c0,1.009,0.042,2.03,0.13,3.189l-5.94,8.225C13.066,46.585,13,46.79,13,47v11c0,0.553,0.448,1,1,1h5.25    c0.265,0,0.52-0.105,0.707-0.293l4.962-4.962C26.986,55.879,29.416,57,32,57c2.584,0,5.014-1.121,7.081-3.255l4.962,4.962    C44.23,58.895,44.484,59,44.75,59H50C50.553,59,51,58.553,51,58z M49,57h-3.836l-5.415-5.415    c-0.199-0.199-0.471-0.308-0.753-0.292c-0.28,0.013-0.543,0.144-0.723,0.359C36.451,53.843,34.281,55,32,55    c-2.282,0-4.451-1.157-6.274-3.348c-0.18-0.216-0.442-0.347-0.723-0.359c-0.279-0.017-0.554,0.093-0.752,0.292L18.835,57H15    v-9.677l5.966-8.261c0.14-0.193,0.206-0.431,0.186-0.668C21.048,37.137,21,36.059,21,35c0-10.34,8.388-22.01,11-25.393    C34.612,12.99,43,24.66,43,35c0,1.053-0.05,2.163-0.152,3.394c-0.021,0.237,0.046,0.475,0.186,0.669L49,47.323V57z"/><path d="M32,25c-3.86,0-7,3.14-7,7c0,3.859,3.14,7,7,7c3.859,0,7-3.141,7-7C39,28.14,35.859,25,32,25z M32,37    c-2.757,0-5-2.243-5-5s2.243-5,5-5s5,2.243,5,5S34.757,37,32,37z"/><path d="M32,29c-0.552,0-1,0.448-1,1s0.448,1,1,1c0.551,0,1,0.449,1,1c0,0.552,0.447,1,1,1s1-0.448,1-1C35,30.346,33.654,29,32,29    z"/></g></g><text x="0" y="79" fill="#000000" font-size="5px" font-weight="bold" font-family="'Helvetica Neue', Helvetica, Arial-Unicode, Arial, Sans-serif">Created by Ralf Schmitzer</text><text x="0" y="84" fill="#000000" font-size="5px" font-weight="bold" font-family="'Helvetica Neue', Helvetica, Arial-Unicode, Arial, Sans-serif">from the Noun Project</text></svg>